:SAMPLES-PER-SECOND 30
:FULLY-SPECIFIED
:DEGREES
580
root  72.2306 37.4866 1.73561 -16.4153 84.8679 -17.7469
RightUpLeg  -11.028 2.58037 -9.33956
RightLeg  39.2769 1.76429 1.27913
RightFoot  -11.868 -0.0526147 5.92188
RightToes  7.56698e-010 0 -3.6325e-017
Spine  28.0086 0.0540032 -4.65431
Spine1  4.17764 -3.29587 9.34119
HEad  -24.5009 -8.19607 -27.6579
LeftShoulder1  0.097123 3.18257 -23.8889
LeftArm  -5.6576 -34.5766 -51.9627
LeftForeArm  17.8878 -7.4587 -6.34848
LeftHand  0.0480325 8.26103 3.84081
RightShoulder  0.963557 1.07246 14.2563
RightArm  16.677 23.8794 56.7367
RightForeArm  -17.6158 29.9026 7.40843
RightHand  20.1811 44.9394 42.4656
LeftUpLeg  -25.4065 12.2649 5.01741
LeftLeg  19.787 -11.1898 -4.12479
LeftFoot  5.75966 0.411548 -2.97426
LeftToes  -2.88401e-009 5.30678e-011 -1.08654e-010
581
root  71.7381 37.2241 2.36712 -18.667 86.3748 -18.4761
RightUpLeg  -7.77474 3.61134 -8.67381
RightLeg  40.6568 1.82943 1.40452
RightFoot  -14.3879 0.204161 10.6129
RightToes  7.56698e-010 0 -3.6325e-017
Spine  27.3289 -0.231977 -5.12579
Spine1  5.16896 -3.85191 9.36594
HEad  -23.2391 -8.2037 -27.4959
LeftShoulder1  0.0870719 3.22218 -24.6076
LeftArm  -6.71825 -28.8319 -49.5026
LeftForeArm  16.7159 0.0197417 -5.74269
LeftHand  -0.00607692 11.0137 1.04479
RightShoulder  0.877758 0.38844 15.9011
RightArm  19.8185 20.3022 56.4629
RightForeArm  -16.4794 28.3144 6.95685
RightHand  19.9794 44.621 43.1414
LeftUpLeg  -25.0752 10.6019 5.77873
LeftLeg  20.2665 -11.2154 -4.22762
LeftFoot  6.69694 0.485865 -3.31731
LeftToes  -2.88401e-009 5.30678e-011 -1.08654e-010
582
root  71.1294 36.9274 3.04346 -18.6149 87.3749 -17.5301
RightUpLeg  -5.44784 4.52709 -7.64678
RightLeg  40.4151 1.95419 1.50217
RightFoot  -18.8775 0.79602 14.2315
RightToes  7.56698e-010 0 -3.6325e-017
Spine  26.6283 -0.421631 -4.82227
Spine1  5.52682 -3.82677 8.56147
HEad  -21.7413 -8.76356 -27.1785
LeftShoulder1  0.076795 3.26215 -25.5725
LeftArm  -7.66831 -22.3552 -46.1258
LeftForeArm  13.8827 4.56605 -5.43896
LeftHand  -0.0416381 12.479 0.399255
RightShoulder  0.747738 -0.342989 17.1465
RightArm  21.1198 16.1464 56.1577
RightForeArm  -22.9181 27.9698 7.09747
RightHand  13.9465 37.3967 29.1598
LeftUpLeg  -25.4789 9.77424 6.52355
LeftLeg  20.5498 -11.428 -4.37183
LeftFoot  7.44226 0.707267 -4.5474
LeftToes  -2.88401e-009 5.30678e-011 -1.08654e-010
583
root  70.495 36.7 3.66663 -11.7682 87.8409 -9.91528
RightUpLeg  -3.87977 4.0976 -7.02921
RightLeg  38.4881 2.23016 1.63526
RightFoot  -23.3179 1.09175 11.9731
RightToes  7.56698e-010 0 -3.6325e-017
Spine  25.7512 -0.648766 -4.38097
Spine1  5.99775 -3.77917 7.84384
HEad  -20.716 -8.61243 -27.4093
LeftShoulder1  -0.00940765 3.53194 -26.3488
LeftArm  -8.82987 -13.4912 -42.6537
LeftForeArm  11.132 3.50949 -5.26184
LeftHand  0.0829165 13.069 2.27685
RightShoulder  0.65199 -0.879433 18.4571
RightArm  22.9541 12.7566 55.7333
RightForeArm  -48.7098 27.8744 7.99572
RightHand  -3.01338 8.35459 -17.2066
LeftUpLeg  -25.3836 8.85278 7.25643
LeftLeg  19.6816 -11.1389 -4.06683
LeftFoot  8.61864 1.03022 -6.14827
LeftToes  -2.88401e-009 5.30678e-011 -1.08654e-010
584
root  69.7265 36.5084 4.26044 -11.1187 88.084 -8.34432
RightUpLeg  -3.31718 2.27964 -6.19211
RightLeg  37.5158 2.08577 1.45234
RightFoot  -26.1048 0.850976 7.87926
RightToes  7.56698e-010 0 -3.6325e-017
Spine  25.9787 -0.902389 -2.97186
Spine1  5.65082 -3.48283 7.04979
HEad  -19.3035 -6.50902 -25.0004
LeftShoulder1  -0.149234 3.95544 -26.8945
LeftArm  -9.97265 -4.17542 -39.3432
LeftForeArm  9.43377 -0.331747 -4.93061
LeftHand  0.018418 13.4443 1.28095
RightShoulder  0.575985 -1.28934 19.8607
RightArm  24.1702 9.83133 54.7681
RightForeArm  -45.8989 27.116 7.71144
RightHand  -1.69386 10.4546 -12.7336
LeftUpLeg  -24.7965 7.65497 8.39305
LeftLeg  17.7839 -10.4625 -3.4013
LeftFoot  10.2481 1.46365 -7.98621
LeftToes  -2.88401e-009 5.30678e-011 -1.08654e-010
585
root  68.9081 36.4173 4.8274 -25.9522 87.5999 -22.8452
RightUpLeg  -4.24429 0.660807 -4.61353
RightLeg  37.4787 2.05048 1.41944
RightFoot  -26.6828 0.477057 4.87108
RightToes  7.56698e-010 0 -3.6325e-017
Spine  25.9969 -1.15793 -0.0415458
Spine1  5.08377 -2.61338 5.28172
HEad  -18.8047 -7.23875 -24.3734
LeftShoulder1  -0.252272 4.26893 -26.7682
LeftArm  -10.2386 4.56259 -36.9621
LeftForeArm  7.72359 -4.09486 -4.91827
LeftHand  0.0334872 12.3385 1.645
RightShoulder  0.464782 -1.82043 21.5631
RightArm  25.8685 7.6639 53.1506
RightForeArm  -46.372 26.0169 7.43691
RightHand  -1.5816 9.57309 -12.5855
LeftUpLeg  -24.115 7.29167 10.1757
LeftLeg  14.5819 -9.82437 -2.37331
LeftFoot  12.1656 1.96287 -9.77938
LeftToes  -2.88401e-009 5.30678e-011 -1.08654e-010
